<svg width="410" height="410" viewBox="0 0 410 410" fill="none" xmlns="http://www.w3.org/2000/svg">
<circle cx="205" cy="205" r="202.5" stroke="#28E98C" stroke-width="5"/>
<path d="M209.304 134.545V280H182.741L119.46 188.452H118.395V280H87.642V134.545H114.631L177.415 226.023H178.693V134.545H209.304Z" fill="#28E98C"/>
<path d="M229.347 280V134.545H283.892C295.066 134.545 304.441 136.629 312.017 140.795C319.64 144.962 325.393 150.691 329.276 157.983C333.205 165.227 335.17 173.466 335.17 182.699C335.17 192.027 333.205 200.312 329.276 207.557C325.346 214.801 319.545 220.507 311.875 224.673C304.205 228.793 294.759 230.852 283.537 230.852H247.386V209.19H279.986C286.52 209.19 291.87 208.054 296.037 205.781C300.204 203.509 303.281 200.384 305.27 196.406C307.306 192.429 308.324 187.86 308.324 182.699C308.324 177.538 307.306 172.992 305.27 169.062C303.281 165.133 300.18 162.079 295.966 159.901C291.799 157.675 286.425 156.562 279.844 156.562H255.696V280H229.347Z" fill="#28E98C"/>
</svg>
