<svg width="159" height="73" viewBox="0 0 159 73" fill="none" xmlns="http://www.w3.org/2000/svg">
<path d="M40.1634 14.3636V58H33.1321L12.571 28.277H12.2088V58H4.30398V14.3636H11.3778L31.9176 44.108H32.3011V14.3636H40.1634ZM62.7113 58.6392C59.5153 58.6392 56.7454 57.9361 54.4016 56.5298C52.0579 55.1236 50.2397 53.1562 48.9471 50.6278C47.6687 48.0994 47.0295 45.1449 47.0295 41.7642C47.0295 38.3835 47.6687 35.4219 48.9471 32.8793C50.2397 30.3366 52.0579 28.3622 54.4016 26.956C56.7454 25.5497 59.5153 24.8466 62.7113 24.8466C65.9073 24.8466 68.6772 25.5497 71.021 26.956C73.3647 28.3622 75.1758 30.3366 76.4542 32.8793C77.7468 35.4219 78.3931 38.3835 78.3931 41.7642C78.3931 45.1449 77.7468 48.0994 76.4542 50.6278C75.1758 53.1562 73.3647 55.1236 71.021 56.5298C68.6772 57.9361 65.9073 58.6392 62.7113 58.6392ZM62.7539 52.4602C64.4869 52.4602 65.9357 51.9844 67.1005 51.0327C68.2653 50.0668 69.1317 48.7741 69.6999 47.1548C70.2823 45.5355 70.5735 43.7315 70.5735 41.7429C70.5735 39.7401 70.2823 37.929 69.6999 36.3097C69.1317 34.6761 68.2653 33.3764 67.1005 32.4105C65.9357 31.4446 64.4869 30.9616 62.7539 30.9616C60.9783 30.9616 59.5011 31.4446 58.3221 32.4105C57.1573 33.3764 56.2837 34.6761 55.7013 36.3097C55.1332 37.929 54.8491 39.7401 54.8491 41.7429C54.8491 43.7315 55.1332 45.5355 55.7013 47.1548C56.2837 48.7741 57.1573 50.0668 58.3221 51.0327C59.5011 51.9844 60.9783 52.4602 62.7539 52.4602ZM99.4283 58.6392C96.147 58.6392 93.3132 57.9574 90.9268 56.5938C88.5547 55.2159 86.7294 53.2699 85.451 50.7557C84.1726 48.2273 83.5334 45.2514 83.5334 41.8281C83.5334 38.4616 84.1726 35.5071 85.451 32.9645C86.7436 30.4077 88.5476 28.419 90.8629 26.9986C93.1783 25.5639 95.8984 24.8466 99.0234 24.8466C101.04 24.8466 102.944 25.1733 104.734 25.8267C106.538 26.4659 108.129 27.4602 109.506 28.8097C110.898 30.1591 111.992 31.8778 112.788 33.9659C113.583 36.0398 113.981 38.5114 113.981 41.3807V43.7457H87.1555V38.5469H106.587C106.573 37.0696 106.254 35.7557 105.629 34.6051C105.004 33.4403 104.13 32.5241 103.008 31.8565C101.9 31.1889 100.607 30.8551 99.13 30.8551C97.5533 30.8551 96.1683 31.2386 94.9751 32.0057C93.782 32.7585 92.8516 33.7528 92.1839 34.9886C91.5305 36.2102 91.1967 37.5526 91.1825 39.0156V43.554C91.1825 45.4574 91.5305 47.0909 92.2266 48.4545C92.9226 49.804 93.8956 50.8409 95.1456 51.5653C96.3956 52.2756 97.8587 52.6307 99.5348 52.6307C100.657 52.6307 101.673 52.4744 102.582 52.1619C103.491 51.8352 104.279 51.3594 104.947 50.7344C105.614 50.1094 106.119 49.3352 106.46 48.4119L113.661 49.2216C113.207 51.125 112.34 52.7869 111.062 54.2074C109.798 55.6136 108.178 56.7074 106.204 57.4886C104.229 58.2557 101.971 58.6392 99.4283 58.6392ZM128.219 14.3636V58H120.506V14.3636H128.219Z" fill="white"/>
<rect x="137.25" y="0.25" width="21.5" height="21.5" rx="10.75" stroke="#28E98C" stroke-width="0.5"/>
<path d="M145.299 14.5V7.22727H147.891C148.457 7.22727 148.926 7.33026 149.298 7.53622C149.669 7.74219 149.947 8.02391 150.132 8.38139C150.317 8.73651 150.409 9.1366 150.409 9.58168C150.409 10.0291 150.316 10.4316 150.129 10.7891C149.944 11.1442 149.665 11.4259 149.29 11.6342C148.919 11.8402 148.451 11.9432 147.888 11.9432H146.105V11.0128H147.788C148.146 11.0128 148.436 10.9512 148.658 10.8281C148.881 10.7027 149.044 10.5322 149.148 10.3168C149.253 10.1013 149.305 9.8563 149.305 9.58168C149.305 9.30705 149.253 9.06321 149.148 8.85014C149.044 8.63707 148.88 8.47017 148.655 8.34943C148.432 8.22869 148.139 8.16832 147.774 8.16832H146.396V14.5H145.299Z" fill="#28E98C"/>
</svg>
